:SAMPLES-PER-SECOND 30
:FULLY-SPECIFIED
:DEGREES
111
root  -39.4787 38.2483 -28.1302 -130.321 -78.68 160.108
RightUpLeg  -61.745 -11.1792 5.39691
RightLeg  31.3192 -1.46831 -1.21009
RightFoot  2.78596 1.00528 -7.93798
RightToes  0.00048216 0.542163 -0.142577
Spine  69.7732 -5.64294 6.62457
Spine1  5.80474 0.37214 -5.85308
HEad  -43.5974 -7.03232 7.68429
LeftShoulder1  7.70054 -24.0118 -21.476
LeftArm  -55.6318 -51.0834 -4.62681
LeftForeArm  -3.52485 -40.6913 -9.84213
LeftHand  -0.25398 0.0180481 5.50724
RightShoulder  3.04514 13.8937 10.2456
RightArm  -55.4837 43.3124 -0.318024
RightForeArm  -26.7972 44.7777 12.6903
RightHand  0.0520184 -3.18577 4.24739
LeftUpLeg  -60.0952 15.4115 -18.2129
LeftLeg  27.4376 1.97843 1.45697
LeftFoot  2.8787 -0.775638 6.07717
LeftToes  1.06245e-005 4.65855e-005 -8.18504e-006
112
root  -39.2549 38.5007 -27.7487 -135.907 -77.141 162.729
RightUpLeg  -57.8607 -11.3172 4.50172
RightLeg  28.829 0.132006 -0.157412
RightFoot  4.27829 1.13666 -8.04843
RightToes  0.00048216 0.542163 -0.142577
Spine  68.5152 -5.27481 6.55752
Spine1  6.45552 0.454342 -5.09775
HEad  -42.6173 -7.61853 7.8932
LeftShoulder1  8.02256 -23.6018 -23.1863
LeftArm  -47.9487 -47.0646 -10.1426
LeftForeArm  -2.7705 -44.1931 -11.0705
LeftHand  -0.25398 0.0180481 5.50724
RightShoulder  3.37927 13.7411 12.5708
RightArm  -48.1399 41.1843 4.62173
RightForeArm  -28.3179 49.1604 14.7831
RightHand  -0.0130371 -3.72435 1.06887
LeftUpLeg  -56.6214 15.0504 -16.2199
LeftLeg  26.9008 3.56513 2.30711
LeftFoot  4.33793 -0.666608 4.65814
LeftToes  1.06245e-005 4.65855e-005 -8.18504e-006
113
root  -39.0601 38.731 -27.303 -141.493 -75.589 164.881
RightUpLeg  -53.6346 -11.8601 3.80109
RightLeg  26.6133 1.92599 0.820391
RightFoot  5.57634 1.27697 -8.30981
RightToes  0.00048216 0.542163 -0.142577
Spine  67.352 -4.8828 6.58394
Spine1  7.04561 0.394984 -4.03894
HEad  -41.4881 -8.24068 8.50468
LeftShoulder1  8.58387 -23.1814 -25.8791
LeftArm  -41.6236 -42.8149 -14.2011
LeftForeArm  -1.61952 -48.1396 -12.6483
LeftHand  -0.25398 0.0180481 5.50724
RightShoulder  3.71955 13.1448 15.5946
RightArm  -41.7916 38.5981 8.98174
RightForeArm  -27.8073 53.6914 17.3366
RightHand  -0.0375653 -4.45745 -0.731634
LeftUpLeg  -52.7286 13.1855 -12.8017
LeftLeg  27.1128 4.98771 3.11234
LeftFoot  6.46952 -0.551785 3.28038
LeftToes  1.06245e-005 4.65855e-005 -8.18504e-006
114
root  -38.8919 38.9363 -26.7936 -146.389 -73.7495 166.183
RightUpLeg  -49.3901 -12.7344 2.98236
RightLeg  24.599 3.96808 1.75639
RightFoot  6.81001 1.26502 -7.61886
RightToes  0.00048216 0.542163 -0.142577
Spine  66.3504 -4.41878 6.31519
Spine1  7.37093 0.207772 -3.01244
HEad  -39.9465 -9.21709 9.68121
LeftShoulder1  9.14758 -22.4688 -29.0478
LeftArm  -36.5805 -38.4144 -17.1134
LeftForeArm  0.20524 -52.4774 -14.7071
LeftHand  -0.25398 0.0180481 5.50724
RightShoulder  4.08949 12.4931 19.0805
RightArm  -36.4832 35.0609 12.6144
RightForeArm  -26.1684 58.4782 20.7858
RightHand  -0.0312622 -5.95654 -1.84211
LeftUpLeg  -48.6575 9.16321 -8.31873
LeftLeg  27.9468 4.45383 2.8971
LeftFoot  7.02499 -0.264985 1.36263
LeftToes  1.06245e-005 4.65855e-005 -8.18504e-006
115
root  -38.744 39.1103 -26.2231 -151.081 -71.5005 167.152
RightUpLeg  -45.0164 -13.1462 1.70517
RightLeg  22.5914 6.23871 2.61976
RightFoot  8.12766 1.09889 -6.0698
RightToes  0.00048216 0.542163 -0.142577
Spine  65.8974 -4.00421 5.61789
Spine1  6.67895 -0.159986 -2.41332
HEad  -37.8591 -10.5221 11.1376
LeftShoulder1  9.44908 -21.2301 -32.0761
LeftArm  -32.2794 -33.4376 -19.2172
LeftForeArm  3.01203 -57.177 -17.4555
LeftHand  -0.25398 0.0180481 5.50724
RightShoulder  4.54168 12.2594 22.5559
RightArm  -31.8581 30.1276 15.9597
RightForeArm  -23.4308 63.4122 25.6557
RightHand  0.0132302 -7.546 -3.44935
LeftUpLeg  -44.4704 3.31224 -3.56416
LeftLeg  29.4649 0.750683 0.785146
LeftFoot  3.83971 0.313637 -2.69478
LeftToes  1.06245e-005 4.65855e-005 -8.18504e-006
116
root  -38.6564 39.2092 -25.5728 -156.845 -68.763 169.035
RightUpLeg  -40.5368 -12.3176 0.181284
RightLeg  20.8597 8.18214 3.34954
RightFoot  9.28057 1.00376 -5.15124
RightToes  0.00048216 0.542163 -0.142577
Spine  64.8433 -3.57846 5.30908
Spine1  7.0954 -0.208276 -2.21869
HEad  -36.4904 -12.5862 12.7606
LeftShoulder1  9.78184 -20.4918 -34.6316
LeftArm  -29.306 -28.7306 -20.3132
LeftForeArm  6.89141 -61.5552 -20.7403
LeftHand  -0.25398 0.0180481 5.50724
RightShoulder  4.92091 12.11 25.4067
RightArm  -28.8453 24.3317 18.8225
RightForeArm  -18.7282 67.7994 31.9385
RightHand  0.0776528 -8.16708 -5.44423
LeftUpLeg  -39.7634 -2.57159 0.219649
LeftLeg  31.0518 -5.39286 -3.14762
LeftFoot  -1.99856 0.617069 -7.3391
LeftToes  1.06245e-005 4.65855e-005 -8.18504e-006
117
root  -38.6632 39.2408 -24.8256 -163.152 -65.1925 171.784
RightUpLeg  -36.3846 -10.1093 -1.34079
RightLeg  19.1362 9.22673 4.02884
RightFoot  10.4319 0.983996 -4.73853
RightToes  0.00048216 0.542163 -0.142577
Spine  63.3519 -3.10996 5.29052
Spine1  7.78121 0.132192 -2.56147
HEad  -35.4511 -15.1107 14.3943
LeftShoulder1  10.332 -20.1694 -37.4545
LeftArm  -27.1161 -24.0935 -19.8234
LeftForeArm  11.1246 -65.3937 -24.6302
LeftHand  -0.25398 0.0180481 5.50724
RightShoulder  5.22366 11.8842 27.9286
RightArm  -26.5866 18.3422 21.397
RightForeArm  -11.6381 71.212 39.2039
RightHand  0.109995 -8.23951 -6.52324
LeftUpLeg  -34.4543 -6.77452 2.02138
LeftLeg  31.3818 -10.6221 -6.57042
LeftFoot  -6.58916 0.407415 -8.56551
LeftToes  1.06245e-005 4.65855e-005 -8.18504e-006
118
root  -38.7398 39.2744 -24.0343 -167.911 -60.4555 174.048
RightUpLeg  -33.1141 -7.6641 -2.25932
RightLeg  16.459 11.1977 4.65872
RightFoot  12.0024 0.59054 -2.48494
RightToes  0.00048216 0.542163 -0.142577
Spine  61.4418 -2.27703 4.36385
Spine1  8.10473 0.586375 -3.32055
HEad  -34.2986 -17.2031 15.8207
LeftShoulder1  10.6706 -19.52 -40.0507
LeftArm  -25.8189 -18.9968 -18.2962
LeftForeArm  15.9759 -69.0308 -29.8351
LeftHand  -0.25398 0.0180481 5.50724
RightShoulder  5.46085 11.6643 30.0314
RightArm  -24.2231 13.131 23.9744
RightForeArm  -3.03844 73.6675 46.938
RightHand  0.140799 -8.79627 -6.60753
LeftUpLeg  -29.645 -8.51199 1.91431
LeftLeg  29.8273 -11.4993 -6.73736
LeftFoot  -7.98461 0.219426 -5.96803
LeftToes  1.06245e-005 4.65855e-005 -8.18504e-006
119
root  -38.8336 39.3328 -23.2936 -170.974 -54.8183 175.64
RightUpLeg  -30.4571 -5.42085 -2.48601
RightLeg  12.5363 14.8443 4.97938
RightFoot  13.073 -0.394536 2.26147
RightToes  0.00048216 0.542163 -0.142577
Spine  58.9159 -0.903495 2.13848
Spine1  8.44092 0.896099 -3.7926
HEad  -33.1541 -18.3862 16.9982
LeftShoulder1  10.6019 -18.5545 -41.6771
LeftArm  -25.7819 -13.3559 -16.7124
LeftForeArm  22.8328 -72.5686 -37.4383
LeftHand  -0.25398 0.0180481 5.50724
RightShoulder  5.69696 11.6414 31.6627
RightArm  -21.5677 9.39842 26.4286
RightForeArm  5.32868 75.304 54.4541
RightHand  0.192111 -9.43141 -7.14034
LeftUpLeg  -26.4867 -7.53307 1.12263
LeftLeg  27.8989 -8.44543 -4.48915
LeftFoot  -7.6104 0.142826 -3.00651
LeftToes  1.06245e-005 4.65855e-005 -8.18504e-006
120
root  -38.9172 39.4381 -22.6552 -173.512 -49.0818 176.956
RightUpLeg  -27.6147 -3.97502 -2.12592
RightLeg  8.01288 17.3993 4.58275
RightFoot  11.919 -1.29341 6.7018
RightToes  0.00048216 0.542163 -0.142577
Spine  56.3234 0.574228 -0.641853
Spine1  8.57894 0.805889 -3.34256
HEad  -31.8074 -18.9117 17.8078
LeftShoulder1  10.4129 -17.6152 -42.8435
LeftArm  -26.5219 -7.36074 -14.979
LeftForeArm  32.6046 -75.6124 -48.1576
LeftHand  -0.25398 0.0180481 5.50724
RightShoulder  5.9437 11.7989 32.893
RightArm  -18.6993 6.71667 28.826
RightForeArm  12.4601 76.2934 60.7711
RightHand  0.230244 -9.29586 -8.428
LeftUpLeg  -24.4737 -4.06883 0.581152
LeftLeg  26.9365 -5.38087 -2.62345
LeftFoot  -6.86496 0.125325 -2.12673
LeftToes  1.06245e-005 4.65855e-005 -8.18504e-006
121
root  -38.9933 39.5835 -22.0824 -175.615 -43.1379 177.888
RightUpLeg  -24.9541 -3.94851 -1.66341
RightLeg  4.37274 14.4613 4.2379
RightFoot  8.35633 -1.41024 8.41668
RightToes  0.00048216 0.542163 -0.142577
Spine  53.5256 1.83038 -3.20765
Spine1  8.81356 0.644721 -2.8317
HEad  -30.2718 -19.2639 18.3926
LeftShoulder1  10.2491 -16.9626 -43.5594
LeftArm  -27.336 -1.68354 -13.2028
LeftForeArm  43.4362 -77.5323 -60.0515
LeftHand  -0.25398 0.0180481 5.50724
RightShoulder  6.12185 11.8709 33.8644
RightArm  -16.2453 4.43348 31.3976
RightForeArm  18.6238 76.8657 65.2579
RightHand  0.230743 -9.04842 -8.92676
LeftUpLeg  -22.6012 1.32521 0.305716
LeftLeg  26.1891 -4.52881 -2.08121
LeftFoot  -6.07756 0.153232 -2.53939
LeftToes  1.06245e-005 4.65855e-005 -8.18504e-006
122
root  -39.0934 39.7544 -21.563 -177.436 -37.056 178.355
RightUpLeg  -22.2676 -5.05048 -1.79154
RightLeg  2.13014 4.18065 4.86083
RightFoot  3.99564 -1.09951 8.34206
RightToes  0.00048216 0.542163 -0.142577
Spine  50.6346 2.42228 -4.99275
Spine1  9.36846 0.697407 -3.43808
HEad  -28.6378 -19.5846 18.9899
LeftShoulder1  10.0209 -16.5841 -43.3871
LeftArm  -27.8283 3.43694 -12.1353
LeftForeArm  52.4306 -78.4339 -69.9854
LeftHand  -0.25398 0.0180481 5.50724
RightShoulder  6.27383 11.7935 35.0463
RightArm  -14.5336 2.10297 33.5991
RightForeArm  24.6924 77.2875 69.0596
RightHand  0.245746 -9.83157 -7.94834
LeftUpLeg  -20.0662 6.95774 0.157638
LeftLeg  24.6948 -4.3942 -1.8713
LeftFoot  -5.33195 0.165792 -2.55433
LeftToes  1.06245e-005 4.65855e-005 -8.18504e-006
123
root  -39.2196 39.9432 -21.1273 -179.021 -30.9868 178.536
RightUpLeg  -19.7392 -6.4775 -2.40872
RightLeg  1.32317 -9.0211 5.88861
RightFoot  1.08596 -0.813739 7.53087
RightToes  0.00048216 0.542163 -0.142577
Spine  48.2628 2.75445 -6.28887
Spine1  9.23127 0.859905 -4.09715
HEad  -26.701 -19.9552 19.1971
LeftShoulder1  9.86746 -16.2564 -43.4371
LeftArm  -27.9354 8.41673 -11.6967
LeftForeArm  61.0082 -78.895 -79.2182
LeftHand  -0.25398 0.0180481 5.50724
RightShoulder  6.34075 11.6125 35.961
RightArm  -13.0941 -0.825466 34.9239
RightForeArm  31.4325 77.7095 74.4733
RightHand  0.280191 -11.339 -6.7621
LeftUpLeg  -17.1986 11.5752 0.254488
LeftLeg  22.6732 -3.11893 -1.10168
LeftFoot  -4.72752 0.160104 -2.27645
LeftToes  1.06245e-005 4.65855e-005 -8.18504e-006
124
root  -39.3386 40.1549 -20.7873 179.651 -24.797 178.712
RightUpLeg  -18.0025 -7.94998 -3.13454
RightLeg  2.69561 -18.2375 6.12248
RightFoot  0.408005 -0.578818 5.66261
RightToes  0.00048216 0.542163 -0.142577
Spine  46.0063 3.08375 -7.28674
Spine1  8.4849 1.00949 -4.17572
HEad  -24.7572 -20.5073 19.3472
LeftShoulder1  9.78268 -15.8586 -43.979
LeftArm  -28.0102 13.1822 -11.562
LeftForeArm  71.0803 -79.074 -89.6308
LeftHand  -0.25398 0.0180481 5.50724
RightShoulder  6.43337 11.5566 36.7122
RightArm  -11.7012 -3.89727 35.036
RightForeArm  37.7599 77.9986 81.1838
RightHand  0.326991 -12.4579 -6.57467
LeftUpLeg  -14.4713 15.6369 0.763984
LeftLeg  20.6063 -1.04268 -0.0771157
LeftFoot  -4.13221 0.176431 -2.40401
LeftToes  1.06245e-005 4.65855e-005 -8.18504e-006
125
root  -39.4313 40.3518 -20.5356 178.356 -18.6621 178.8
RightUpLeg  -17.1397 -12.1536 -3.37262
RightLeg  6.78826 -19.1636 4.72069
RightFoot  0.406125 -0.333191 3.25918
RightToes  0.00048216 0.542163 -0.142577
Spine  43.8291 3.21581 -7.85965
Spine1  7.82749 1.13513 -4.25099
HEad  -23.2753 -21.6964 19.9277
LeftShoulder1  9.63279 -15.4464 -44.2617
LeftArm  -27.9258 17.3118 -11.6349
LeftForeArm  80.9804 -78.9159 -99.7066
LeftHand  -0.25398 0.0180481 5.50724
RightShoulder  6.55596 11.5288 37.5807
RightArm  -10.4992 -6.53191 34.2993
RightForeArm  43.2107 78.095 87.7523
RightHand  0.384287 -13.0847 -6.94295
LeftUpLeg  -11.5663 19.6094 1.69005
LeftLeg  18.6416 0.851919 0.50749
LeftFoot  -3.50133 0.18969 -2.46561
LeftToes  1.06245e-005 4.65855e-005 -8.18504e-006
